HIERARCHY
ROOT Hips
{
	OFFSET -0.001795 -0.223333 0.028219
	CHANNELS 6 Xposition Yposition Zposition Zrotation Yrotation Xrotation 
	JOINT LeftUpLeg
	{
		OFFSET 0.069520 -0.091406 -0.006815
		CHANNELS 3 Zrotation Yrotation Xrotation
		JOINT LeftLeg
		{
			OFFSET 0.034277 -0.375199 -0.004496
			CHANNELS 3 Zrotation Yrotation Xrotation
			JOINT LeftFoot
			{
				OFFSET -0.013596 -0.397961 -0.043693
				CHANNELS 3 Zrotation Yrotation Xrotation
				JOINT LeftToe
				{
					OFFSET 0.026358 -0.055791 0.119288
					CHANNELS 3 Zrotation Yrotation Xrotation
					End Site
					{
						OFFSET 0.000000 0.000000 0.000000
					}
				}
			}
		}
	}
	JOINT RightUpLeg
	{
		OFFSET -0.067670 -0.090522 -0.004320
		CHANNELS 3 Zrotation Yrotation Xrotation
		JOINT RightLeg
		{
			OFFSET -0.038290 -0.382569 -0.008850
			CHANNELS 3 Zrotation Yrotation Xrotation
			JOINT RightFoot
			{
				OFFSET 0.015774 -0.398415 -0.042312
				CHANNELS 3 Zrotation Yrotation Xrotation
				JOINT RightToe
				{
					OFFSET -0.025372 -0.048144 0.123348
					CHANNELS 3 Zrotation Yrotation Xrotation
					End Site
					{
						OFFSET 0.000000 0.000000 0.000000
					}
				}
			}
		}
	}
	JOINT Spine
	{
		OFFSET -0.002533 0.108963 -0.026696
		CHANNELS 3 Zrotation Yrotation Xrotation
		JOINT Spine1
		{
			OFFSET 0.005487 0.135180 0.001092
			CHANNELS 3 Zrotation Yrotation Xrotation
			JOINT Spine2
			{
				OFFSET 0.001457 0.052922 0.025425
				CHANNELS 3 Zrotation Yrotation Xrotation
				JOINT Neck
				{
					OFFSET -0.002778 0.213870 -0.042857
					CHANNELS 3 Zrotation Yrotation Xrotation
					JOINT Head
					{
						OFFSET 0.005152 0.064970 0.051349
						CHANNELS 3 Zrotation Yrotation Xrotation
						End Site
						{
							OFFSET 0.000000 0.000000 0.000000
						}
					}
				}
				JOINT LeftShoulder
				{
					OFFSET 0.078845 0.121749 -0.034090
					CHANNELS 3 Zrotation Yrotation Xrotation
					JOINT LeftArm
					{
						OFFSET 0.090977 0.030469 -0.008868
						CHANNELS 3 Zrotation Yrotation Xrotation
						JOINT LeftForeArm
						{
							OFFSET 0.259612 -0.012772 -0.027456
							CHANNELS 3 Zrotation Yrotation Xrotation
							JOINT LeftHand
							{
								OFFSET 0.249234 0.008986 -0.001171
								CHANNELS 3 Zrotation Yrotation Xrotation
								End Site
								{
									OFFSET 0.000000 0.000000 0.000000
								}
							}
						}
					}
				}
				JOINT RightShoulder
				{
					OFFSET -0.081759 0.118833 -0.038615
					CHANNELS 3 Zrotation Yrotation Xrotation
					JOINT RightArm
					{
						OFFSET -0.096012 0.032551 -0.009143
						CHANNELS 3 Zrotation Yrotation Xrotation
						JOINT RightForeArm
						{
							OFFSET -0.253742 -0.013329 -0.021401
							CHANNELS 3 Zrotation Yrotation Xrotation
							JOINT RightHand
							{
								OFFSET -0.255298 0.007772 -0.005559
								CHANNELS 3 Zrotation Yrotation Xrotation
								End Site
								{
									OFFSET 0.000000 0.000000 0.000000
								}
							}
						}
					}
				}
			}
		}
	}
}
MOTION
Frames: 13
Frame Time: 0.050000
0.000000 0.951524 0.000000 -0.470184 13.409565 -2.033925 2.953423 0.071168 3.623576 1.939600 -0.002151 -3.452947 -4.460150 -0.625043 12.588605 0.000000 0.000000 0.000000 -0.738772 0.031905 -0.445456 -3.285595 0.541863 2.017020 1.633798 0.698338 10.169511 0.000000 0.000000 0.000000 2.984245 -0.237474 3.427569 1.214490 -0.499570 -0.965058 -4.814770 2.655707 4.960823 7.835593 -4.627387 -6.751985 0.000000 0.000000 0.000000 -7.486137 -8.912377 1.737809 -58.312384 -2.014845 -6.617046 -10.302515 -28.873581 2.979934 0.000000 0.000000 0.000000 8.444975 1.002272 0.807150 64.901829 -1.881189 -6.268396 7.216205 32.012156 3.802439 0.000000 0.000000 0.000000 
0.000939 0.950253 0.001093 -0.357678 12.386084 -2.113245 2.414554 0.172032 4.740331 2.498753 0.022874 -4.762372 -3.932546 0.039653 12.479314 0.000000 0.000000 0.000000 -1.585723 -0.011475 -0.080275 -2.183954 0.354932 1.461401 2.124197 1.666868 9.842166 0.000000 0.000000 0.000000 3.904407 -0.288889 3.653607 0.089191 0.032671 -0.988811 -4.912006 3.399110 4.927508 7.469366 -4.039974 -7.974316 0.000000 0.000000 0.000000 -6.292733 -8.507036 1.725180 -60.261440 -1.947648 -7.093524 -9.217555 -27.856891 2.595514 0.000000 0.000000 0.000000 7.751729 0.564836 0.596765 66.694191 -3.058606 -6.930929 6.891531 30.730075 3.538267 0.000000 0.000000 0.000000 
0.001649 0.949919 0.001725 -0.251991 11.725834 -2.300784 2.267992 0.186455 4.633586 2.412879 -0.014971 -3.878807 -3.510801 0.463047 12.137248 0.000000 0.000000 0.000000 -1.382130 -0.019369 0.040905 -2.870676 0.454131 1.573122 2.356615 2.144781 9.623686 0.000000 0.000000 0.000000 3.673773 -0.324664 4.265929 0.422748 0.043011 -3.479094 -4.945068 3.557949 7.231554 6.981816 -3.531499 -8.816879 0.000000 0.000000 0.000000 -5.095502 -8.062755 1.768427 -61.190916 -1.333239 -7.898213 -10.481911 -27.523114 2.904355 0.000000 0.000000 0.000000 7.512532 1.021042 0.829709 67.477213 -3.312154 -7.392166 6.279841 29.311964 3.229589 0.000000 0.000000 0.000000 
0.002588 0.950061 0.002090 -0.156234 10.577062 -2.351322 1.584312 0.258508 4.830216 3.193258 -0.076714 -3.706968 -2.907921 1.302758 12.145959 0.000000 0.000000 0.000000 -1.680083 -0.034849 0.231817 -2.726060 0.404751 1.109893 2.920777 3.107970 9.771678 0.000000 0.000000 0.000000 3.876418 -0.308216 3.972161 0.320743 0.019159 -2.563863 -4.692055 3.485189 6.975795 7.713430 -4.015662 -9.252274 0.000000 0.000000 0.000000 -3.898364 -7.644833 1.842928 -63.299792 -0.121817 -8.963507 -9.908884 -28.318056 2.896224 0.000000 0.000000 0.000000 5.349347 1.087504 0.666295 69.276108 -3.217458 -7.335254 6.169652 28.017118 2.965679 0.000000 0.000000 0.000000 
0.003533 0.950916 0.001926 -0.073309 9.709988 -2.397200 1.096692 0.306451 4.921776 3.663085 -0.122844 -3.522007 -2.515272 1.952687 12.404349 0.000000 0.000000 0.000000 -1.466158 -0.000473 -0.090861 -3.431662 0.521715 1.554153 3.296145 3.708067 9.939842 0.000000 0.000000 0.000000 3.468043 -0.312563 4.268991 0.778607 -0.134444 -3.561983 -4.546527 3.364234 8.202546 8.128446 -4.375261 -9.332601 0.000000 0.000000 0.000000 -2.496809 -7.771136 2.121753 -64.864902 0.113755 -9.593845 -10.025128 -27.923946 2.974358 0.000000 0.000000 0.000000 4.484666 0.610150 0.401767 70.350910 -3.223144 -7.558835 7.220731 28.191908 3.248196 0.000000 0.000000 0.000000 
0.004875 0.952217 0.001094 -0.229791 7.906580 -2.298017 0.965584 0.287334 4.269598 3.748899 -0.222030 -2.201583 -1.589703 3.287538 12.573956 0.000000 0.000000 0.000000 -1.317520 0.074483 -0.816631 -3.662615 0.574016 2.011861 4.170434 5.037455 10.456303 0.000000 0.000000 0.000000 3.378668 -0.305394 4.226313 0.811966 -0.163177 -3.694406 -4.034610 3.270771 8.926802 8.419304 -4.537703 -10.024433 0.000000 0.000000 0.000000 -0.734088 -7.021098 2.137925 -66.888242 0.195078 -10.125128 -10.036058 -27.570760 3.060122 0.000000 0.000000 0.000000 3.344260 1.141365 0.522160 71.075911 -2.982843 -7.682406 7.196760 27.663923 3.115463 0.000000 0.000000 0.000000 
0.006956 0.953174 -0.000514 -0.384332 5.974363 -2.344959 0.941552 0.277950 3.916125 3.525050 -0.280750 -1.166707 -0.609896 4.679965 12.761622 0.000000 0.000000 0.000000 -1.313512 0.150281 -1.590492 -3.720089 0.622289 2.731063 5.118205 6.462761 10.929384 0.000000 0.000000 0.000000 3.282063 -0.337339 4.741299 0.745491 -0.136209 -4.109603 -3.587389 3.507748 9.924865 9.117894 -4.870742 -11.254531 0.000000 0.000000 0.000000 0.811830 -6.092371 2.033369 -68.458075 0.418512 -10.658173 -10.295568 -28.473235 3.332136 0.000000 0.000000 0.000000 2.846383 0.918443 0.388792 71.273810 -2.343348 -7.551092 7.835428 28.539552 3.380021 0.000000 0.000000 0.000000 
0.010456 0.953629 -0.002709 -0.671084 2.880038 -2.166646 0.988640 0.262056 3.471476 3.073422 -0.315058 -0.179380 0.985480 6.901721 12.990318 0.000000 0.000000 0.000000 -1.136537 0.328222 -3.460413 -4.216180 0.822767 4.696883 6.798881 9.323782 11.132324 0.000000 0.000000 0.000000 2.995448 -0.366562 5.362494 0.737627 -0.163715 -4.358708 -2.865986 4.221800 10.416153 10.165412 -5.513271 -12.211406 0.000000 0.000000 0.000000 1.539465 -5.514017 1.931381 -69.274345 1.262717 -11.217871 -11.770454 -30.056843 4.029052 0.000000 0.000000 0.000000 2.344394 1.366795 0.516234 71.046880 -2.398297 -7.838312 8.319605 29.640724 3.609818 0.000000 0.000000 0.000000 
0.015316 0.953301 -0.005639 -0.912559 -0.128777 -1.781594 0.882877 0.219306 2.705753 2.633644 -0.341506 0.866152 2.605998 9.130043 13.102648 0.000000 0.000000 0.000000 -1.110959 0.513467 -5.446134 -4.739750 1.029791 6.340813 8.629985 12.359124 11.568477 0.000000 0.000000 0.000000 2.848111 -0.421618 6.321368 0.759404 -0.208885 -4.539550 -2.719720 5.061004 10.294813 11.700811 -6.345848 -13.523669 0.000000 0.000000 0.000000 2.031211 -4.496498 1.659055 -69.530599 1.742948 -11.401330 -13.036869 -31.751109 4.698155 0.000000 0.000000 0.000000 2.046425 1.459001 0.522387 70.568512 -2.338382 -7.917661 8.121896 30.770400 3.676033 0.000000 0.000000 0.000000 
0.021536 0.953380 -0.009431 -1.153906 -4.126364 -1.217114 1.041089 0.192939 2.255158 1.413981 -0.214564 1.088136 4.612652 11.950362 13.780765 0.000000 0.000000 0.000000 -0.922212 0.813014 -8.481173 -5.576458 1.369869 8.466747 11.487462 15.817727 13.885865 0.000000 0.000000 0.000000 2.956546 -0.482920 7.290796 0.355609 -0.077867 -5.073147 -2.358513 5.176596 10.620335 12.893563 -6.972345 -15.212603 0.000000 0.000000 0.000000 2.469795 -4.728707 1.734767 -69.615370 2.428795 -11.384895 -15.471380 -33.792344 5.997208 0.000000 0.000000 0.000000 1.240822 1.781863 0.598138 70.709650 -1.934292 -8.160199 9.118220 32.822296 4.112439 0.000000 0.000000 0.000000 
0.028083 0.953164 -0.013478 -1.311095 -8.665289 -0.305881 0.868641 0.148417 1.576726 0.469897 -0.092203 1.014631 6.948562 15.178119 14.851591 0.000000 0.000000 0.000000 -0.679678 1.166574 -11.611366 -5.819660 1.613092 10.175159 13.512721 17.556286 15.867392 0.000000 0.000000 0.000000 2.929382 -0.519161 8.156208 0.243542 -0.099280 -4.737106 -2.296807 5.122759 9.798252 13.665828 -7.565667 -15.593943 0.000000 0.000000 0.000000 2.378765 -4.241147 1.539307 -69.370449 3.474438 -11.297136 -16.616214 -36.396652 7.125959 0.000000 0.000000 0.000000 0.248251 2.223694 0.751961 70.425651 -1.867788 -8.551037 10.006514 34.996115 4.466486 0.000000 0.000000 0.000000 
0.033595 0.953393 -0.016721 -1.397663 -14.017257 0.355968 0.726780 0.149716 1.437985 1.981675 -0.371938 2.781588 4.048976 9.756318 11.830567 0.000000 0.000000 0.000000 -0.111799 1.656400 -14.988069 -5.579313 1.903369 12.597149 14.906902 17.302564 18.352342 0.000000 0.000000 0.000000 3.392004 -0.597155 9.532250 -0.403809 0.109011 -4.516029 -2.101804 4.074931 9.367747 14.079854 -7.767380 -17.261212 0.000000 0.000000 0.000000 2.058630 -5.201219 1.798469 -68.840296 4.023379 -10.601232 -16.992249 -38.575640 8.158936 0.000000 0.000000 0.000000 -0.309843 2.527873 0.868933 69.867747 -2.095633 -9.464389 13.108652 38.640993 5.608304 0.000000 0.000000 0.000000 
0.036534 0.953497 -0.017138 -1.502132 -20.164770 1.174977 0.268159 0.209211 1.897102 1.887127 -0.334359 2.153384 5.600322 11.782576 12.497593 0.000000 0.000000 0.000000 0.654950 2.324228 -18.422792 -4.793396 2.011517 14.051356 15.093374 15.377679 19.838556 0.000000 0.000000 0.000000 3.462712 -0.596980 10.593606 -0.580425 0.146344 -3.485350 -2.055736 2.798161 8.326607 13.381537 -7.564595 -17.624946 0.000000 0.000000 0.000000 1.799052 -4.910830 1.685426 -67.912927 5.499750 -10.246459 -17.745081 -41.622469 9.663100 0.000000 0.000000 0.000000 -0.401553 2.647346 0.896373 68.583896 -2.289244 -10.177360 17.774900 41.672350 7.110027 0.000000 0.000000 0.000000 
